<svg id="Layer_1" data-name="Layer 1" width="16" height="16" xmlns="http://www.w3.org/2000/svg" viewBox="0 0 1365.06 1918.19"><rect y="4.92" width="235.98" height="1913.27" rx="117.99" style="fill:#fff"/><path d="M1374.38,1864.83,842.77,1080.51a118,118,0,0,0-90.7-42.52H459.91a118,118,0,0,1-118-118h0a118,118,0,0,1,118-118h402.8a118,118,0,0,1,90.7,42.52l602.37,869.37a118,118,0,0,1-15.23,166.16h0A118,118,0,0,1,1374.38,1864.83Z" transform="translate(-223.93 -0.81)" style="fill:#fff"/><rect x="865.93" y="231.1" width="831.93" height="235.98" rx="117.99" transform="translate(-25.31 1117.45) rotate(-50.61)" style="fill:#fff"/></svg>